o Ramp
v 0.000000 0.000000 0.5
v 0.000000 1.000000 0.5
v 0.015192 0.826352 0.5
v 0.060307 0.657980 0.5
v 0.133975 0.500000 0.5
v 0.233956 0.357212 0.5
v 0.357212 0.233956 0.5
v 0.500000 0.133975 0.5
v 0.657980 0.060307 0.5
v 0.826352 0.015192 0.5
v 1.000000 0.000000 0.5
v 0.000000 0.000000 -0.5
v 0.000000 1.000000 -0.5
v 0.015192 0.826352 -0.5
v 0.060307 0.657980 -0.5
v 0.133975 0.500000 -0.5
v 0.233956 0.357212 -0.5
v 0.357212 0.233956 -0.5
v 0.500000 0.133975 -0.5
v 0.657980 0.060307 -0.5
v 0.826352 0.015192 -0.5
v 1.000000 0.000000 -0.5

vn 0.0 0.0 1.0
vn 0.0 0.0 -1.0

vn 1.000000 0.000000 0.000000
vn 0.984808 0.173648 0.000000
vn 0.939693 0.342020 0.000000
vn 0.866025 0.500000 0.000000
vn 0.766044 0.642788 0.000000
vn 0.642788 0.766044 0.000000
vn 0.500000 0.866025 0.000000
vn 0.342020 0.939693 0.000000
vn 0.173648 0.984808 0.000000
vn 0.000000 1.000000 0.000000

s 1

f 2//3 3//4 14//4 13//3
f 3//4 4//5 15//5 14//4
f 4//5 5//6 16//6 15//5
f 5//6 6//7 17//7 16//6
f 6//7 7//8 18//8 17//7
f 7//8 8//9 19//9 18//8
f 8//9 9//10 20//10 19//9
f 9//10 10//11 21//11 20//10
f 10//11 11//12 22//12 21//11

f 1//1 3//1 2//1
f 1//1 4//1 3//1
f 1//1 5//1 4//1
f 1//1 6//1 5//1
f 1//1 7//1 6//1
f 1//1 8//1 7//1
f 1//1 9//1 8//1
f 1//1 10//1 9//1
f 1//1 11//1 10//1
f 12//2 13//2 14//2
f 12//2 14//2 15//2
f 12//2 15//2 16//2
f 12//2 16//2 17//2
f 12//2 17//2 18//2
f 12//2 18//2 19//2
f 12//2 19//2 20//2
f 12//2 20//2 21//2
f 12//2 21//2 22//2
