o Circle
v 0.000000 0.000000 0.5
v 0.000000 2.000000 0.5
v 0.174311 1.992389 0.5
v 0.347296 1.969616 0.5
v 0.517638 1.931852 0.5
v 0.684040 1.879385 0.5
v 0.845237 1.812616 0.5
v 1.000000 1.732051 0.5
v 1.147153 1.638304 0.5
v 1.285575 1.532089 0.5
v 1.414214 1.414214 0.5
v 1.532089 1.285575 0.5
v 1.638304 1.147153 0.5
v 1.732051 1.000000 0.5
v 1.812616 0.845237 0.5
v 1.879385 0.684040 0.5
v 1.931852 0.517638 0.5
v 1.969616 0.347296 0.5
v 1.992389 0.174311 0.5
v 2.000000 0.000000 0.5
v 0.000000 0.000000 -0.5
v 0.000000 2.000000 -0.5
v 0.174311 1.992389 -0.5
v 0.347296 1.969616 -0.5
v 0.517638 1.931852 -0.5
v 0.684040 1.879385 -0.5
v 0.845237 1.812616 -0.5
v 1.000000 1.732051 -0.5
v 1.147153 1.638304 -0.5
v 1.285575 1.532089 -0.5
v 1.414214 1.414214 -0.5
v 1.532089 1.285575 -0.5
v 1.638304 1.147153 -0.5
v 1.732051 1.000000 -0.5
v 1.812616 0.845237 -0.5
v 1.879385 0.684040 -0.5
v 1.931852 0.517638 -0.5
v 1.969616 0.347296 -0.5
v 1.992389 0.174311 -0.5
v 2.000000 0.000000 -0.5

vn 0.0 0.0 1.0
vn 0.0 0.0 -1.0

vn 0.000000 1.000000 0.000000
vn 0.087156 0.996195 0.000000
vn 0.173648 0.984808 0.000000
vn 0.258819 0.965926 0.000000
vn 0.342020 0.939693 0.000000
vn 0.422618 0.906308 0.000000
vn 0.500000 0.866025 0.000000
vn 0.573576 0.819152 0.000000
vn 0.642788 0.766044 0.000000
vn 0.707107 0.707107 0.000000
vn 0.766044 0.642788 0.000000
vn 0.819152 0.573576 0.000000
vn 0.866025 0.500000 0.000000
vn 0.906308 0.422618 0.000000
vn 0.939693 0.342020 0.000000
vn 0.965926 0.258819 0.000000
vn 0.984808 0.173648 0.000000
vn 0.996195 0.087156 0.000000
vn 1.000000 0.000000 0.000000

s 1

f 2//3 3//4 23//4 22//3
f 3//4 4//5 24//5 23//4
f 4//5 5//6 25//6 24//5
f 5//6 6//7 26//7 25//6
f 6//7 7//8 27//8 26//7
f 7//8 8//9 28//9 27//8
f 8//9 9//10 29//10 28//9
f 9//10 10//11 30//11 29//10
f 10//11 11//12 31//12 30//11
f 11//12 12//13 32//13 31//12
f 12//13 13//14 33//14 32//13
f 13//14 14//15 34//15 33//14
f 14//15 15//16 35//16 34//15
f 15//16 16//17 36//17 35//16
f 16//17 17//18 37//18 36//17
f 17//18 18//19 38//19 37//18
f 18//19 19//20 39//20 38//19
f 19//20 20//21 40//21 39//20

f 1//1 3//1 2//1
f 1//1 4//1 3//1
f 1//1 5//1 4//1
f 1//1 6//1 5//1
f 1//1 7//1 6//1
f 1//1 8//1 7//1
f 1//1 9//1 8//1
f 1//1 10//1 9//1
f 1//1 11//1 10//1
f 1//1 12//1 11//1
f 1//1 13//1 12//1
f 1//1 14//1 13//1
f 1//1 15//1 14//1
f 1//1 16//1 15//1
f 1//1 17//1 16//1
f 1//1 18//1 17//1
f 1//1 19//1 18//1
f 1//1 20//1 19//1
f 21//2 22//2 23//2
f 21//2 23//2 24//2
f 21//2 24//2 25//2
f 21//2 25//2 26//2
f 21//2 26//2 27//2
f 21//2 27//2 28//2
f 21//2 28//2 29//2
f 21//2 29//2 30//2
f 21//2 30//2 31//2
f 21//2 31//2 32//2
f 21//2 32//2 33//2
f 21//2 33//2 34//2
f 21//2 34//2 35//2
f 21//2 35//2 36//2
f 21//2 36//2 37//2
f 21//2 37//2 38//2
f 21//2 38//2 39//2
f 21//2 39//2 40//2
