o Circle
v 0.000000 0.000000 0.5
v 0.000000 3.000000 0.5
v 0.005076 2.825566 0.5
v 0.020285 2.651721 0.5
v 0.045577 2.479055 0.5
v 0.080865 2.308152 0.5
v 0.126031 2.139590 0.5
v 0.180922 1.973940 0.5
v 0.245352 1.811761 0.5
v 0.319102 1.653602 0.5
v 0.401924 1.500000 0.5
v 0.493537 1.351473 0.5
v 0.593630 1.208524 0.5
v 0.701867 1.071637 0.5
v 0.817879 0.941275 0.5
v 0.941275 0.817879 0.5
v 1.071637 0.701867 0.5
v 1.208524 0.593630 0.5
v 1.351473 0.493537 0.5
v 1.500000 0.401924 0.5
v 1.653602 0.319102 0.5
v 1.811761 0.245352 0.5
v 1.973940 0.180922 0.5
v 2.139590 0.126031 0.5
v 2.308152 0.080865 0.5
v 2.479055 0.045577 0.5
v 2.651721 0.020285 0.5
v 2.825566 0.005076 0.5
v 3.000000 0.000000 0.5
v 0.000000 0.000000 -0.5
v 0.000000 3.000000 -0.5
v 0.005076 2.825566 -0.5
v 0.020285 2.651721 -0.5
v 0.045577 2.479055 -0.5
v 0.080865 2.308152 -0.5
v 0.126031 2.139590 -0.5
v 0.180922 1.973940 -0.5
v 0.245352 1.811761 -0.5
v 0.319102 1.653602 -0.5
v 0.401924 1.500000 -0.5
v 0.493537 1.351473 -0.5
v 0.593630 1.208524 -0.5
v 0.701867 1.071637 -0.5
v 0.817879 0.941275 -0.5
v 0.941275 0.817879 -0.5
v 1.071637 0.701867 -0.5
v 1.208524 0.593630 -0.5
v 1.351473 0.493537 -0.5
v 1.500000 0.401924 -0.5
v 1.653602 0.319102 -0.5
v 1.811761 0.245352 -0.5
v 1.973940 0.180922 -0.5
v 2.139590 0.126031 -0.5
v 2.308152 0.080865 -0.5
v 2.479055 0.045577 -0.5
v 2.651721 0.020285 -0.5
v 2.825566 0.005076 -0.5
v 3.000000 0.000000 -0.5

vn 0.0 0.0 1.0
vn 0.0 0.0 -1.0

vn 1.000000 0.000000 0.000000
vn 0.998308 0.058145 0.000000
vn 0.993238 0.116093 0.000000
vn 0.984808 0.173648 0.000000
vn 0.973045 0.230616 0.000000
vn 0.957990 0.286803 0.000000
vn 0.939693 0.342020 0.000000
vn 0.918216 0.396080 0.000000
vn 0.893633 0.448799 0.000000
vn 0.866025 0.500000 0.000000
vn 0.835488 0.549509 0.000000
vn 0.802123 0.597159 0.000000
vn 0.766044 0.642788 0.000000
vn 0.727374 0.686242 0.000000
vn 0.686242 0.727374 0.000000
vn 0.642788 0.766044 0.000000
vn 0.597159 0.802123 0.000000
vn 0.549509 0.835488 0.000000
vn 0.500000 0.866025 0.000000
vn 0.448799 0.893633 0.000000
vn 0.396080 0.918216 0.000000
vn 0.342020 0.939693 0.000000
vn 0.286803 0.957990 0.000000
vn 0.230616 0.973045 0.000000
vn 0.173648 0.984808 0.000000
vn 0.116093 0.993238 0.000000
vn 0.058145 0.998308 0.000000
vn 0.000000 1.000000 0.000000

s 1

f 2//3 3//4 32//4 31//3
f 3//4 4//5 33//5 32//4
f 4//5 5//6 34//6 33//5
f 5//6 6//7 35//7 34//6
f 6//7 7//8 36//8 35//7
f 7//8 8//9 37//9 36//8
f 8//9 9//10 38//10 37//9
f 9//10 10//11 39//11 38//10
f 10//11 11//12 40//12 39//11
f 11//12 12//13 41//13 40//12
f 12//13 13//14 42//14 41//13
f 13//14 14//15 43//15 42//14
f 14//15 15//16 44//16 43//15
f 15//16 16//17 45//17 44//16
f 16//17 17//18 46//18 45//17
f 17//18 18//19 47//19 46//18
f 18//19 19//20 48//20 47//19
f 19//20 20//21 49//21 48//20
f 20//21 21//22 50//22 49//21
f 21//22 22//23 51//23 50//22
f 22//23 23//24 52//24 51//23
f 23//24 24//25 53//25 52//24
f 24//25 25//26 54//26 53//25
f 25//26 26//27 55//27 54//26
f 26//27 27//28 56//28 55//27
f 27//28 28//29 57//29 56//28
f 28//29 29//30 58//30 57//29

f 1//1 3//1 2//1
f 1//1 4//1 3//1
f 1//1 5//1 4//1
f 1//1 6//1 5//1
f 1//1 7//1 6//1
f 1//1 8//1 7//1
f 1//1 9//1 8//1
f 1//1 10//1 9//1
f 1//1 11//1 10//1
f 1//1 12//1 11//1
f 1//1 13//1 12//1
f 1//1 14//1 13//1
f 1//1 15//1 14//1
f 1//1 16//1 15//1
f 1//1 17//1 16//1
f 1//1 18//1 17//1
f 1//1 19//1 18//1
f 1//1 20//1 19//1
f 1//1 21//1 20//1
f 1//1 22//1 21//1
f 1//1 23//1 22//1
f 1//1 24//1 23//1
f 1//1 25//1 24//1
f 1//1 26//1 25//1
f 1//1 27//1 26//1
f 1//1 28//1 27//1
f 1//1 29//1 28//1
f 30//2 31//2 32//2
f 30//2 32//2 33//2
f 30//2 33//2 34//2
f 30//2 34//2 35//2
f 30//2 35//2 36//2
f 30//2 36//2 37//2
f 30//2 37//2 38//2
f 30//2 38//2 39//2
f 30//2 39//2 40//2
f 30//2 40//2 41//2
f 30//2 41//2 42//2
f 30//2 42//2 43//2
f 30//2 43//2 44//2
f 30//2 44//2 45//2
f 30//2 45//2 46//2
f 30//2 46//2 47//2
f 30//2 47//2 48//2
f 30//2 48//2 49//2
f 30//2 49//2 50//2
f 30//2 50//2 51//2
f 30//2 51//2 52//2
f 30//2 52//2 53//2
f 30//2 53//2 54//2
f 30//2 54//2 55//2
f 30//2 55//2 56//2
f 30//2 56//2 57//2
f 30//2 57//2 58//2
