o QuarterCircleSmooth
v 1.000000 1.000 0.000000
v 0.984808 1.000 0.173648
v 0.939693 1.000 0.342020
v 0.866025 1.000 0.500000
v 0.766044 1.000 0.642788
v 0.642788 1.000 0.766044
v 0.500000 1.000 0.866025
v 0.342020 1.000 0.939693
v 0.173648 1.000 0.984808
v 0.000000 1.000 1.000000
v 1.000000 0.000 0.000000
v 0.984808 0.000 0.173648
v 0.939693 0.000 0.342020
v 0.866025 0.000 0.500000
v 0.766044 0.000 0.642788
v 0.642788 0.000 0.766044
v 0.500000 0.000 0.866025
v 0.342020 0.000 0.939693
v 0.173648 0.000 0.984808
v 0.000000 0.000 1.000000

vn  1.000000 0.000000 0.000000
vn  0.984808 0.000000 0.173648
vn  0.939693 0.000000 0.342020
vn  0.866025 0.000000 0.500000
vn  0.766044 0.000000 0.642788
vn  0.642788 0.000000 0.766044
vn  0.500000 0.000000 0.866025
vn  0.342020 0.000000 0.939693
vn  0.173648 0.000000 0.984808
vn  0.000000 0.000000 1.000000

s 1

f 1//1 2//2 12//2 11//1
f 2//2 3//3 13//3 12//2
f 3//3 4//4 14//4 13//3
f 4//4 5//5 15//5 14//4
f 5//5 6//6 16//6 15//5
f 6//6 7//7 17//7 16//6
f 7//7 8//8 18//8 17//7
f 8//8 9//9 19//9 18//8
f 9//9 10//10 20//10 19//9
