o Stairs
v -0.500000 0.000000 0.500000
v -0.375000 0.000000 0.500000
v -0.375000 0.000000 0.375000
v -0.250000 0.000000 0.375000
v -0.250000 0.000000 0.250000
v -0.125000 0.000000 0.250000
v -0.125000 0.000000 0.125000
v 0.000000 0.000000 0.125000
v 0.000000 0.000000 0.000000
v 0.125000 0.000000 0.000000
v 0.125000 -0.000000 -0.125000
v 0.250000 -0.000000 -0.125000
v 0.250000 -0.000000 -0.250000
v 0.375000 -0.000000 -0.250000
v 0.375000 -0.000000 -0.375000
v 0.500000 -0.000000 -0.375000
v 0.500000 -0.000000 -0.500000
v -0.500000 1.000000 0.500000
v -0.375000 1.000000 0.500000
v -0.375000 1.000000 0.375000
v -0.250000 1.000000 0.375000
v -0.250000 1.000000 0.250000
v -0.125000 1.000000 0.250000
v -0.125000 1.000000 0.125000
v 0.000000 1.000000 0.125000
v 0.000000 1.000000 -0.000000
v 0.125000 1.000000 -0.000000
v 0.125000 1.000000 -0.125000
v 0.250000 1.000000 -0.125000
v 0.250000 1.000000 -0.250000
v 0.375000 1.000000 -0.250000
v 0.375000 1.000000 -0.375000
v 0.500000 1.000000 -0.375000
v 0.500000 1.000000 -0.500000

vn -0.0000 -0.0000 1.0000
vn 1.0000 -0.0000 -0.0000

f 1//1 2//1 19//1 18//1
f 2//2 3//2 20//2 19//2
f 3//1 4//1 21//1 20//1
f 4//2 5//2 22//2 21//2
f 5//1 6//1 23//1 22//1
f 6//2 7//2 24//2 23//2
f 7//1 8//1 25//1 24//1
f 8//2 9//2 26//2 25//2
f 9//1 10//1 27//1 26//1
f 10//2 11//2 28//2 27//2
f 11//1 12//1 29//1 28//1
f 12//2 13//2 30//2 29//2
f 13//1 14//1 31//1 30//1
f 14//2 15//2 32//2 31//2
f 15//1 16//1 33//1 32//1
f 16//2 17//2 34//2 33//2
